<svg xmlns:xlink="http://www.w3.org/1999/xlink" xmlns="http://www.w3.org/2000/svg" set="nav" name="daily" theme="gray" class="Icon--icon--2aW0V Icon--grayTheme--2JviY Navigation--icon--22x7E" data-testid="Icon" viewBox="0 0 24 24" width="28"  height="28" ><title>Daily</title><path d="M17.682 2c.627 0 1.136.509 1.136 1.136v1.591h1.637c.853 0 1.545.692 1.545 1.545v14.183c0 .853-.692 1.545-1.545 1.545H3.545A1.545 1.545 0 012 20.455V6.272c0-.853.692-1.545 1.545-1.545h2.091v-1.59a1.136 1.136 0 112.273 0v1.59h8.636v-1.59c0-.628.51-1.137 1.137-1.137zm2.5 8.182H3.818v9.227c0 .427.346.773.773.773h14.818a.773.773 0 00.773-.773v-9.227z" fill="#757575"></path></svg>