<svg xmlns:xlink="http://www.w3.org/1999/xlink" xmlns="http://www.w3.org/2000/svg" set="weather" skycode="21" theme="full" name="" class="Icon--icon--2aW0V Icon--fullTheme--3Fc-5" data-testid="Icon" stroke="white" stroke-width="2" viewBox="0 0 200 200" width="200"  height="200" ><defs><symbol id="svg-symbol-fog-wave"><path fill="white" d="M198.4,55.3c-0.9-1.2-2.6-1.4-3.7-0.5l-4.6,3.6c0,0,0,0,0,0c-1,1.1-7.6,5.3-15.2,5.4 c-5.3,0.1-9.9-1.8-13.8-5.6c-12.5-12.6-26.9-5.7-32.7-0.3l0,0c0,0,0,0,0,0c-1,1.1-7.8,5.5-15.4,5.7c-5.3,0.1-9.9-1.8-13.8-5.7 c-12.5-12.5-26.9-5.7-32.7-0.3c0,0,0,0,0,0c-1,1.1-7.8,5.6-15.4,5.8c-5.3,0.1-9.9-1.8-13.8-5.7c-12.2-12.3-26.2-6-32.3-0.7L2,59.2 c-1.2,0.9-1.3,2.7-0.4,3.9c0.9,1.2,2.6,1.4,3.8,0.5l2.9-2.3v0c0,0,0,0,0,0l1.8-1.3v0c4-2.8,14-8,23.5,1.5c5.5,5.5,11.6,7.3,17,7.3 c4.7,0,8.9-1.3,11.8-2.5c1.6-0.7,5.8-2.5,7.8-4.7c0.7-0.6,13.3-11.8,25.3,0.2c5.5,5.5,11.6,7.3,17,7.3c4.7,0,8.9-1.3,11.8-2.5 c1.5-0.7,5.7-2.5,7.7-4.7l0,0c0.6-0.5,13.3-11.9,25.3,0.1c5.5,5.5,11.6,7.3,17,7.3c4.7,0,8.9-1.3,11.8-2.5c1.3-0.6,4.7-2,6.8-3.9 l5-3.6C199.2,58.3,199.3,56.4,198.4,55.3z"></path></symbol><symbol id="svg-symbol-fog-wave"><path fill="var(--color-fog)" d="M198.4,55.3c-0.9-1.2-2.6-1.4-3.7-0.5l-4.6,3.6c0,0,0,0,0,0c-1,1.1-7.6,5.3-15.2,5.4 c-5.3,0.1-9.9-1.8-13.8-5.6c-12.5-12.6-26.9-5.7-32.7-0.3l0,0c0,0,0,0,0,0c-1,1.1-7.8,5.5-15.4,5.7c-5.3,0.1-9.9-1.8-13.8-5.7 c-12.5-12.5-26.9-5.7-32.7-0.3c0,0,0,0,0,0c-1,1.1-7.8,5.6-15.4,5.8c-5.3,0.1-9.9-1.8-13.8-5.7c-12.2-12.3-26.2-6-32.3-0.7L2,59.2 c-1.2,0.9-1.3,2.7-0.4,3.9c0.9,1.2,2.6,1.4,3.8,0.5l2.9-2.3v0c0,0,0,0,0,0l1.8-1.3v0c4-2.8,14-8,23.5,1.5c5.5,5.5,11.6,7.3,17,7.3 c4.7,0,8.9-1.3,11.8-2.5c1.6-0.7,5.8-2.5,7.8-4.7c0.7-0.6,13.3-11.8,25.3,0.2c5.5,5.5,11.6,7.3,17,7.3c4.7,0,8.9-1.3,11.8-2.5 c1.5-0.7,5.7-2.5,7.7-4.7l0,0c0.6-0.5,13.3-11.9,25.3,0.1c5.5,5.5,11.6,7.3,17,7.3c4.7,0,8.9-1.3,11.8-2.5c1.3-0.6,4.7-2,6.8-3.9 l5-3.6C199.2,58.3,199.3,56.4,198.4,55.3z"></path></symbol><symbol id="svg-symbol-fog-wave"><path fill="var(--color-fog)" d="M198.4,55.3c-0.9-1.2-2.6-1.4-3.7-0.5l-4.6,3.6c0,0,0,0,0,0c-1,1.1-7.6,5.3-15.2,5.4 c-5.3,0.1-9.9-1.8-13.8-5.6c-12.5-12.6-26.9-5.7-32.7-0.3l0,0c0,0,0,0,0,0c-1,1.1-7.8,5.5-15.4,5.7c-5.3,0.1-9.9-1.8-13.8-5.7 c-12.5-12.5-26.9-5.7-32.7-0.3c0,0,0,0,0,0c-1,1.1-7.8,5.6-15.4,5.8c-5.3,0.1-9.9-1.8-13.8-5.7c-12.2-12.3-26.2-6-32.3-0.7L2,59.2 c-1.2,0.9-1.3,2.7-0.4,3.9c0.9,1.2,2.6,1.4,3.8,0.5l2.9-2.3v0c0,0,0,0,0,0l1.8-1.3v0c4-2.8,14-8,23.5,1.5c5.5,5.5,11.6,7.3,17,7.3 c4.7,0,8.9-1.3,11.8-2.5c1.6-0.7,5.8-2.5,7.8-4.7c0.7-0.6,13.3-11.8,25.3,0.2c5.5,5.5,11.6,7.3,17,7.3c4.7,0,8.9-1.3,11.8-2.5 c1.5-0.7,5.7-2.5,7.7-4.7l0,0c0.6-0.5,13.3-11.9,25.3,0.1c5.5,5.5,11.6,7.3,17,7.3c4.7,0,8.9-1.3,11.8-2.5c1.3-0.6,4.7-2,6.8-3.9 l5-3.6C199.2,58.3,199.3,56.4,198.4,55.3z"></path></symbol><symbol id="svg-symbol-fog-wave"><path fill="var(--color-fog)" d="M198.4,55.3c-0.9-1.2-2.6-1.4-3.7-0.5l-4.6,3.6c0,0,0,0,0,0c-1,1.1-7.6,5.3-15.2,5.4 c-5.3,0.1-9.9-1.8-13.8-5.6c-12.5-12.6-26.9-5.7-32.7-0.3l0,0c0,0,0,0,0,0c-1,1.1-7.8,5.5-15.4,5.7c-5.3,0.1-9.9-1.8-13.8-5.7 c-12.5-12.5-26.9-5.7-32.7-0.3c0,0,0,0,0,0c-1,1.1-7.8,5.6-15.4,5.8c-5.3,0.1-9.9-1.8-13.8-5.7c-12.2-12.3-26.2-6-32.3-0.7L2,59.2 c-1.2,0.9-1.3,2.7-0.4,3.9c0.9,1.2,2.6,1.4,3.8,0.5l2.9-2.3v0c0,0,0,0,0,0l1.8-1.3v0c4-2.8,14-8,23.5,1.5c5.5,5.5,11.6,7.3,17,7.3 c4.7,0,8.9-1.3,11.8-2.5c1.6-0.7,5.8-2.5,7.8-4.7c0.7-0.6,13.3-11.8,25.3,0.2c5.5,5.5,11.6,7.3,17,7.3c4.7,0,8.9-1.3,11.8-2.5 c1.5-0.7,5.7-2.5,7.7-4.7l0,0c0.6-0.5,13.3-11.9,25.3,0.1c5.5,5.5,11.6,7.3,17,7.3c4.7,0,8.9-1.3,11.8-2.5c1.3-0.6,4.7-2,6.8-3.9 l5-3.6C199.2,58.3,199.3,56.4,198.4,55.3z"></path></symbol></defs><title>Foggy</title><use xlink:href="#svg-symbol-fog-wave" stroke="#D3D3D3" stroke-width="2px"></use><use xlink:href="#svg-symbol-fog-wave" y="26.5" stroke="#D3D3D3" stroke-width="2px"></use><use xlink:href="#svg-symbol-fog-wave" y="53" stroke="#D3D3D3" stroke-width="2px"></use><use xlink:href="#svg-symbol-fog-wave" y="79.5" stroke="#D3D3D3" stroke-width="2px"></use></svg>