<svg xmlns:xlink="http://www.w3.org/1999/xlink" xmlns="http://www.w3.org/2000/svg" set="nav" name="hourly" theme="gray" class="Icon--icon--2aW0V Icon--grayTheme--2JviY Navigation--icon--22x7E" data-testid="Icon" viewBox="0 0 24 24" width="28"  height="28" ><title>Hourly</title><path d="M12.556 12.278V7.244c0-.444-.356-.8-.8-.8h-.067c-.445 0-.8.356-.8.8v5.245c0 .389.2.755.544.955l4.056 2.434a.792.792 0 001.089-.267.8.8 0 00-.278-1.111l-3.744-2.222zM12 2C6.478 2 2 6.478 2 12s4.478 10 10 10 10-4.478 10-10S17.522 2 12 2zm0 17.778c-4.289 0-7.778-3.49-7.778-7.778 0-4.289 3.49-7.778 7.778-7.778 4.289 0 7.778 3.49 7.778 7.778 0 4.289-3.49 7.778-7.778 7.778z" fill="#757575"></path></svg>