<svg xmlns:xlink="http://www.w3.org/1999/xlink" xmlns="http://www.w3.org/2000/svg" set="nav" name="radar" theme="gray" class="Icon--icon--2aW0V Icon--grayTheme--2JviY Navigation--icon--22x7E" data-testid="Icon" viewBox="0 0 24 24" width="28"  height="28" ><title>Radar</title><path d="M20.985 12.004c.595 0 1.069.517.998 1.111-.31 2.815-1.786 5.58-4.522 7.311a10.069 10.069 0 01-10.907-.062C.879 16.697.52 8.888 5.406 4.512c3.98-3.57 10.262-3.311 13.914.623a.713.713 0 010 1.005L13.97 11.49c.184.665.015 1.4-.509 1.924a2.006 2.006 0 01-2.829-.002 2.006 2.006 0 01-.001-2.829 1.979 1.979 0 011.923-.508l1.513-1.513c-1.535-.9-3.537-.71-4.852.606a4.002 4.002 0 00.71 6.224 3.99 3.99 0 004.04.123 3.992 3.992 0 002-2.694c.099-.467.495-.82.976-.82h.014c.601.007 1.096.545.984 1.14a5.952 5.952 0 01-1.647 3.104 6.002 6.002 0 01-8.983-.571c-1.628-2.08-1.68-5.1-.11-7.222a5.997 5.997 0 018.317-1.34l1.428-1.427c-3.142-2.45-7.675-2.232-10.56.652C2.898 9.823 3.276 15.772 7.6 18.667c2.575 1.713 5.878 1.793 8.594.196 2.326-1.364 3.548-3.662 3.809-5.975a.982.982 0 01.982-.884z" fill="#757575"></path></svg>